<svg xmlns="http://www.w3.org/2000/svg" viewBox="0 0 32 32">
  <rect width="32" height="32" rx="6" fill="#10B981"/>
  <path fill="#fff" d="M6 18.5l.8-2.2 1-2.5.8-2.5.8-2.5.2-.5v-.8l.5-.5h1l.5.3.3.5v1.7l-1 2.2-1 2.2-.7 2.2-.8 2v.5l-.2.5v1l-.3.7.3.8v.2l.2.5h.3l1.2-.5 1.5-1.2 1.5-2 1.5-2.2 1.5-2.5 1-2.7.2-.3h.5l.8.3.2.7v.5l-.2.5-.3 1-.2.7-.3 1.3-.2.7v3l.2.8.3.7.2.5.5.3.8-.3.7-.7 1-1.3.8-1.7.7-1.5.8-1.7.5-1.8.2-1.5.3-1.2.2-1.3.3-1.2.2-1.2.3-.3.2-.5.3-.5h.5l.7.3.3 1v1.2l-.3 1.3-.5 1.5-.2 1.5-1 2.7-1 3-1.5 2.5-1.5 2.2-.7.5-.8.8-.7.2-1 .3-1.3-.5-1-1.3-.5-1.7-.2-2.2-1.3 1.7-1 1.5-1 1-1.3 1-1.2 1-1.3.2-1-.2-1-.8-.3-1-.2-1.3.2-1.5.3-1.7z"/>
</svg>
